<?xml version="1.0" encoding="UTF-8" standalone="no"?>
<!DOCTYPE svg PUBLIC "-//W3C//DTD SVG 1.1//EN" "http://www.w3.org/Graphics/SVG/1.1/DTD/svg11.dtd">
<svg width="100%" height="100%" viewBox="0 0 663 776" version="1.1" xmlns="http://www.w3.org/2000/svg" xmlns:xlink="http://www.w3.org/1999/xlink" xml:space="preserve" xmlns:serif="http://www.serif.com/" style="fill-rule:evenodd;clip-rule:evenodd;stroke-linejoin:round;stroke-miterlimit:2;">
    <g transform="matrix(1,0,0,1,-180.724999,-124.000844)">
        <g id="gameweekiq-logo" transform="matrix(1.148607,0,0,1.148607,-68.416185,-75.746994)">
            <path d="M416.738,271.998L392.599,202.042L459.181,238.734L482.574,173.904L531.773,232.163L581.838,174.314L598.804,241.616L656.451,203.501L636.851,277.719C566.731,256.182 493.387,254.111 416.738,271.998ZM655.072,373.169C648.443,380.158 656.849,393.241 673.303,409.586C632.745,398.397 607.533,398.53 576.848,376.849C597.422,368.748 623.386,367.384 655.072,373.169ZM690.6,363.858C640.802,314.781 569.041,307.895 503.363,329.59C518.772,336.708 532.739,345.574 545.424,355.995C523.742,361.055 505.841,371.216 492.137,387.037C522.172,395.498 552.366,405.888 582.665,417.548C532.864,452.978 565.576,495.041 655.185,480.457C582.945,558.482 690.346,542.767 743.105,505.786C755.858,496.847 758.946,482.104 757.427,464.929C743.138,456.414 730.296,447.141 719.805,436.635C725.448,429.143 744.441,428.186 774.392,432.594C752.071,412.752 725.987,394.965 698.56,377.911C727.512,387.816 758.196,403.552 793.737,435.633C789.706,446.561 783.08,455.478 775.191,463.418C777.939,481.083 774.211,497.777 764.512,513.575C795.073,559.676 779.346,612.226 728.233,664.448L706.431,643.957C711.473,698.451 686.324,755.287 612.25,815.917C650.371,680.533 469.793,646.875 414.584,517.369C410.267,608.734 521.719,675.715 536.974,691.099C559.54,713.855 641.095,783.79 551.251,849.504C492.949,756.202 315.672,779.401 326.978,590.7C310.643,613.429 297.988,651.015 294.075,703.837C231.966,626.637 241.65,531.756 340.037,454.713C296.039,469.511 254.835,494.89 216.907,532.677C231.343,448.32 283.631,381.878 373.781,345.548C347.786,343.959 320.338,344.767 291.712,347.519C362.174,288.48 557.362,244.821 662.695,315.333C678.42,325.86 689.208,340.797 690.6,363.858ZM658.43,558.484C670.13,585.044 696.353,572.112 729.053,621.709C758.595,595.086 765.069,543.15 746.817,532.071C740.177,528.04 733.657,530.119 729.98,531.807C708.232,541.795 685.992,553.223 658.43,558.484Z" style="fill:rgb(250,250,250);"/>
        </g>
    </g>
</svg>
